naruto shippuden bzingaz in mp4 format..


Format                           : MPEG-4
Format profile                   : Base Media
Codec ID                         : isom
File size                        : 55.5 MiB
Duration                         : 23mn 9s
Overall bit rate                 : 335 Kbps
Encoded date                     : UTC 2011-07-06 12:22:14
Tagged date                      : UTC 2011-07-06 12:22:14

Video
ID                               : 1
Format                           : AVC
Format/Info                      : Advanced Video Codec
Format profile                   : High@L3.1
Format settings, CABAC           : Yes
Format settings, ReFrames        : 10 frames
Codec ID                         : avc1
Codec ID/Info                    : Advanced Video Coding
Duration                         : 23mn 9s
Bit rate                         : 300 Kbps
Maximum bit rate                 : 2 517 Kbps
Width                            : 624 pixels
Height                           : 352 pixels
Display aspect ratio             : 16:9
Frame rate mode                  : Constant
Frame rate                       : 23.810 fps
Color space                      : YUV
Chroma subsampling               : 4:2:0
Bit depth                        : 8 bits
Scan type                        : Progressive
Bits/(Pixel*Frame)               : 0.057
Stream size                      : 49.7 MiB (90%)
Title                            : Imported with GPAC 0.4.6-DEV (internal rev. 5)
Writing library                  : x264 core 98 r1649 c54c47d
Encoding settings                : cabac=1 / ref=10 / deblock=1:1:1 / analyse=0x3:0x113 / me=hex / subme=7 / psy=1 / psy_rd=0.40:0.00 / mixed_ref=1 / me_range=16 / chroma_me=1 / trellis=2 / 8x8dct=1 / cqm=0 / deadzone=21,11 / fast_pskip=1 / chroma_qp_offset=-2 / threads=1 / sliced_threads=0 / nr=0 / decimate=1 / interlaced=0 / constrained_intra=0 / bframes=16 / b_pyramid=2 / b_adapt=1 / b_bias=0 / direct=3 / weightb=1 / weightp=2 / keyint=250 / keyint_min=25 / scenecut=40 / intra_refresh=0 / rc_lookahead=40 / rc=2pass / mbtree=1 / bitrate=300 / ratetol=1.0 / qcomp=0.60 / qpmin=10 / qpmax=51 / qpstep=4 / cplxblur=20.0 / qblur=0.5 / ip_ratio=1.40 / aq=1:0.60
Encoded date                     : UTC 2011-07-06 12:22:14
Tagged date                      : UTC 2011-07-06 12:22:18

Audio
ID                               : 2
Format                           : AAC
Format/Info                      : Advanced Audio Codec
Format profile                   : HE-AACv2 / HE-AAC / LC
Codec ID                         : 40
Duration                         : 23mn 9s
Bit rate mode                    : Variable
Bit rate                         : 32.2 Kbps
Maximum bit rate                 : 37.4 Kbps
Channel(s)                       : 2 channels / 1 channel / 1 channel
Channel positions                : Front: L R / Front: C / Front: C
Sampling rate                    : 44.1 KHz / 44.1 KHz / 22.05 KHz
Compression mode                 : Lossy
Stream size                      : 5.33 MiB (10%)
Encoded date                     : UTC 2011-07-06 12:22:17
Tagged date                      : UTC 2011-07-06 12:22:18
